<?xml version="1.0" encoding="UTF-8"?>
<svg xmlns="http://www.w3.org/2000/svg" xmlns:xlink="http://www.w3.org/1999/xlink" viewBox="0 0 48 48" width="48px" height="48px">
<g id="surface36125128">
<rect x="0" y="0" width="48" height="48" style="fill:rgb(9.019608%,9.019608%,9.019608%);fill-opacity:1;stroke:none;"/>
<path style=" stroke:none;fill-rule:nonzero;fill:rgb(78.431374%,0.392157%,0.392157%);fill-opacity:1;" d="M 38.398438 6.398438 L 9.601562 6.398438 C 7.832031 6.398438 6.398438 7.832031 6.398438 9.601562 L 6.398438 38.398438 C 6.398438 40.167969 7.832031 41.601562 9.601562 41.601562 L 38.398438 41.601562 C 40.167969 41.601562 41.601562 40.167969 41.601562 38.398438 L 41.601562 9.601562 C 41.601562 7.832031 40.167969 6.398438 38.398438 6.398438 Z M 17.527344 35.199219 L 12.804688 35.199219 L 12.804688 20.011719 L 17.527344 20.011719 Z M 15.117188 17.839844 C 13.597656 17.839844 12.367188 16.609375 12.367188 15.089844 C 12.367188 13.570312 13.597656 12.339844 15.117188 12.339844 C 16.636719 12.339844 17.867188 13.574219 17.867188 15.089844 C 17.867188 16.609375 16.636719 17.839844 15.117188 17.839844 Z M 35.207031 35.199219 L 30.488281 35.199219 L 30.488281 27.8125 C 30.488281 26.054688 30.457031 23.789062 28.035156 23.789062 C 25.582031 23.789062 25.203125 25.707031 25.203125 27.6875 L 25.203125 35.199219 L 20.488281 35.199219 L 20.488281 20.011719 L 25.015625 20.011719 L 25.015625 22.089844 L 25.078125 22.089844 C 25.707031 20.894531 27.246094 19.636719 29.542969 19.636719 C 34.324219 19.636719 35.207031 22.78125 35.207031 26.871094 Z M 35.207031 35.199219 "/>
</g>
</svg>
