<?xml version="1.0" encoding="UTF-8"?>
<svg xmlns="http://www.w3.org/2000/svg" xmlns:xlink="http://www.w3.org/1999/xlink" viewBox="0 0 48 48" width="48px" height="48px">
<g id="surface37150192">
<rect x="0" y="0" width="48" height="48" style="fill:rgb(9.019608%,9.019608%,9.019608%);fill-opacity:1;stroke:none;"/>
<path style=" stroke:none;fill-rule:nonzero;fill:rgb(78.431374%,0.392157%,0.392157%);fill-opacity:1;" d="M 39.359375 3.839844 L 8.640625 3.839844 C 5.992188 3.839844 3.839844 5.992188 3.839844 8.640625 L 3.839844 39.359375 C 3.839844 42.007812 5.992188 44.160156 8.640625 44.160156 L 39.359375 44.160156 C 42.007812 44.160156 44.160156 42.007812 44.160156 39.359375 L 44.160156 8.640625 C 44.160156 5.992188 42.007812 3.839844 39.359375 3.839844 Z M 35.519531 18.238281 L 33.601562 18.238281 C 31.546875 18.238281 30.71875 18.71875 30.71875 20.160156 L 30.71875 23.039062 L 35.519531 23.039062 L 34.558594 27.839844 L 30.71875 27.839844 L 30.71875 42.238281 L 25.921875 42.238281 L 25.921875 27.839844 L 22.078125 27.839844 L 22.078125 23.039062 L 25.921875 23.039062 L 25.921875 20.160156 C 25.921875 16.320312 27.839844 13.441406 31.679688 13.441406 C 34.464844 13.441406 35.519531 14.398438 35.519531 14.398438 Z M 35.519531 18.238281 "/>
</g>
</svg>
